<svg width="16" height="16" viewBox="0 0 16 16" fill="none" xmlns="http://www.w3.org/2000/svg">
<path d="M4.00002 3.20039C3.55752 3.20039 3.20002 3.55789 3.20002 4.00039V12.0004C3.20002 12.4429 3.55752 12.8004 4.00002 12.8004H12C12.4425 12.8004 12.8 12.4429 12.8 12.0004V4.00039C12.8 3.55789 12.4425 3.20039 12 3.20039H4.00002ZM2.40002 4.00039C2.40002 3.11789 3.11752 2.40039 4.00002 2.40039H12C12.8825 2.40039 13.6 3.11789 13.6 4.00039V12.0004C13.6 12.8829 12.8825 13.6004 12 13.6004H4.00002C3.11752 13.6004 2.40002 12.8829 2.40002 12.0004V4.00039ZM5.00002 5.60039C5.00002 5.26789 5.26752 5.00039 5.60002 5.00039C5.93252 5.00039 6.20002 5.26789 6.20002 5.60039C6.20002 5.93289 5.93252 6.20039 5.60002 6.20039C5.26752 6.20039 5.00002 5.93289 5.00002 5.60039ZM7.20002 5.60039C7.20002 5.38039 7.38002 5.20039 7.60002 5.20039H10.8C11.02 5.20039 11.2 5.38039 11.2 5.60039C11.2 5.82039 11.02 6.00039 10.8 6.00039H7.60002C7.38002 6.00039 7.20002 5.82039 7.20002 5.60039ZM7.20002 8.00039C7.20002 7.78039 7.38002 7.60039 7.60002 7.60039H10.8C11.02 7.60039 11.2 7.78039 11.2 8.00039C11.2 8.22039 11.02 8.40039 10.8 8.40039H7.60002C7.38002 8.40039 7.20002 8.22039 7.20002 8.00039ZM7.20002 10.4004C7.20002 10.1804 7.38002 10.0004 7.60002 10.0004H10.8C11.02 10.0004 11.2 10.1804 11.2 10.4004C11.2 10.6204 11.02 10.8004 10.8 10.8004H7.60002C7.38002 10.8004 7.20002 10.6204 7.20002 10.4004ZM5.60002 8.60039C5.26752 8.60039 5.00002 8.33289 5.00002 8.00039C5.00002 7.66789 5.26752 7.40039 5.60002 7.40039C5.93252 7.40039 6.20002 7.66789 6.20002 8.00039C6.20002 8.33289 5.93252 8.60039 5.60002 8.60039ZM5.00002 10.4004C5.00002 10.0679 5.26752 9.80039 5.60002 9.80039C5.93252 9.80039 6.20002 10.0679 6.20002 10.4004C6.20002 10.7329 5.93252 11.0004 5.60002 11.0004C5.26752 11.0004 5.00002 10.7329 5.00002 10.4004Z" fill="black"/>
</svg>
